HIERARCHY
ROOT Hips
{
	OFFSET	0.00	0.00	0.00
	CHANNELS 6 Xposition Yposition Zposition Zrotation Xrotation Yrotation
	JOINT Chest
	{
		OFFSET	0.00	6.28	0.00
		CHANNELS 3 Zrotation Xrotation Yrotation
		JOINT Neck
		{
			OFFSET	0.00	14.30	0.00
			CHANNELS 3 Zrotation Xrotation Yrotation
			JOINT Head
			{
				OFFSET	0.00	2.64	0.00
				CHANNELS 3 Zrotation Xrotation Yrotation
				End Site
				{
					OFFSET	0.00	4.50	0.00
				}
			}
		}
		JOINT LeftCollar
		{
			OFFSET	1.12	11.36	1.87
			CHANNELS 3 Zrotation Xrotation Yrotation
			JOINT LeftUpArm
			{
				OFFSET	4.57	2.02	-1.82
				CHANNELS 3 Zrotation Xrotation Yrotation
				JOINT LeftLowArm
				{
					OFFSET	0.22	-10.35	-0.06
					CHANNELS 3 Zrotation Xrotation Yrotation
					JOINT LeftHand
					{
						OFFSET	0.09	-10.35	2.18
						CHANNELS 3 Zrotation Xrotation Yrotation
						End Site
						{
							OFFSET	0.13	-6.69	1.71
						}
					}
				}
			}
		}
		JOINT RightCollar
		{
			OFFSET	-1.12	11.36	1.87
			CHANNELS 3 Zrotation Xrotation Yrotation
			JOINT RightUpArm
			{
				OFFSET	-4.71	2.03	-1.82
				CHANNELS 3 Zrotation Xrotation Yrotation
				JOINT RightLowArm
				{
					OFFSET	-0.26	-10.43	-0.06
					CHANNELS 3 Zrotation Xrotation Yrotation
					JOINT RightHand
					{
						OFFSET	0.00	-10.26	2.18
						CHANNELS 3 Zrotation Xrotation Yrotation
						End Site
						{
							OFFSET	-0.14	-6.67	1.71
						}
					}
				}
			}
		}
	}
	JOINT LeftUpLeg
	{
		OFFSET	3.91	0.00	0.00
		CHANNELS 3 Zrotation Xrotation Yrotation
		JOINT LeftLowLeg
		{
			OFFSET	-0.44	-17.57	1.70
			CHANNELS 3 Zrotation Xrotation Yrotation
			JOINT LeftFoot
			{
				OFFSET	-0.04	-17.20	-1.48
				CHANNELS 3 Zrotation Xrotation Yrotation
				End Site
				{
					OFFSET	0.00	-3.93	5.23
				}
			}
		}
	}
	JOINT RightUpLeg
	{
		OFFSET	-3.91	0.00	0.00
		CHANNELS 3 Zrotation Xrotation Yrotation
		JOINT RightLowLeg
		{
			OFFSET	0.44	-17.62	1.70
			CHANNELS 3 Zrotation Xrotation Yrotation
			JOINT RightFoot
			{
				OFFSET	0.00	-17.14	-1.48
				CHANNELS 3 Zrotation Xrotation Yrotation
				End Site
				{
					OFFSET	0.00	-4.04	5.23
				}
			}
		}
	}
}
MOTION
Frames: 15
Frame Time: 0.04
14.30	5.06	8.68	-4.41	-0.01	-63.60	1.80	-2.81	-4.80	4.18	-7.36	-12.11	3.47	-21.01	2.20	7.82	13.71	-3.79	48.70	-26.52	-1.56	1.87	-1.78	-0.43	-8.65	2.60	-1.83	3.99	8.35	-1.15	-58.63	-29.75	-6.05	-8.65	12.72	2.32	21.12	3.22	4.43	2.35	-3.39	-8.00	-2.17	3.54	-4.15	-11.40	-8.60	-0.73	-0.15	2.18	-12.74	2.32	-3.78	7.43	10.06	-3.05	4.44	
14.61	5.02	8.63	-4.79	-0.03	-63.46	1.92	-2.54	-4.91	4.06	-6.88	-12.26	3.80	-19.48	2.32	7.84	13.47	-3.89	48.52	-26.32	-1.63	1.91	-1.86	-0.44	-8.62	2.60	-1.82	3.87	8.32	-1.03	-58.46	-29.64	-6.07	-8.65	12.67	2.34	21.18	3.23	4.44	2.36	-3.55	-8.22	-2.16	3.59	-4.13	-11.54	-8.54	-0.72	-0.16	1.66	-13.00	2.33	-3.04	7.32	9.78	-2.83	4.41	
14.96	4.98	8.56	-5.15	-0.10	-63.33	1.90	-2.17	-4.96	4.04	-6.75	-12.36	3.85	-19.34	2.34	7.84	13.42	-3.88	48.54	-26.36	-1.63	1.95	-2.01	-0.48	-8.59	2.60	-1.82	3.87	8.29	-0.99	-58.22	-29.60	-6.60	-8.74	10.80	3.27	20.56	3.18	4.32	2.34	-3.81	-8.52	-2.16	3.71	-4.11	-11.62	-8.33	-0.68	-0.24	1.18	-12.85	2.31	-2.49	6.94	9.71	-2.55	4.37	
15.34	4.92	8.47	-5.47	-0.17	-63.28	1.82	-1.81	-4.92	4.07	-6.60	-12.45	3.83	-19.15	2.32	7.78	13.73	-3.78	48.80	-26.68	-1.42	1.99	-2.13	-0.52	-8.49	2.60	-1.80	4.03	8.43	-1.02	-58.33	-29.81	-6.84	-8.73	10.73	3.30	20.69	3.19	4.35	2.32	-4.04	-8.69	-2.16	3.64	-4.12	-11.88	-8.09	-0.65	-0.36	0.43	-12.77	2.30	-1.62	6.64	9.42	-2.26	4.34	
15.74	4.85	8.38	-5.75	-0.22	-63.33	1.71	-1.51	-4.71	4.11	-6.43	-12.60	3.78	-18.91	2.27	7.60	14.21	-3.72	49.26	-27.12	-1.01	2.03	-2.21	-0.56	-8.40	2.59	-1.78	4.35	8.72	-1.11	-58.64	-30.10	-7.39	-8.74	10.62	3.35	20.82	3.20	4.37	2.33	-4.22	-8.84	-2.13	3.31	-3.98	-12.48	-7.75	-0.60	-0.43	-0.32	-12.53	2.27	-0.99	6.26	8.90	-1.84	4.31	
16.20	4.77	8.28	-6.01	-0.28	-63.41	1.61	-1.14	-4.45	4.13	-6.26	-12.83	3.82	-18.78	2.29	7.59	14.25	-3.80	49.35	-27.21	-0.83	2.09	-2.27	-0.62	-8.22	2.59	-1.74	4.40	8.70	-1.12	-58.57	-30.25	-7.19	-8.75	10.64	3.36	20.73	3.19	4.36	2.31	-4.53	-8.82	-2.11	3.05	-3.95	-12.97	-7.31	-0.52	-0.60	-1.52	-12.26	2.26	0.27	5.87	8.41	-1.33	4.27	
16.71	4.67	8.15	-6.19	-0.37	-63.48	1.52	-0.67	-4.34	4.11	-6.19	-12.84	3.81	-18.63	2.28	7.36	14.61	-3.55	49.64	-27.66	-0.27	2.17	-2.30	-0.70	-8.13	2.58	-1.72	4.54	9.00	-1.16	-58.81	-30.70	-7.27	-8.78	10.44	3.48	20.54	3.18	4.32	2.21	-5.07	-8.87	-2.10	2.86	-3.92	-13.36	-6.63	-0.37	-0.81	-2.86	-12.00	2.23	1.40	5.41	7.96	-0.60	4.21	
17.29	4.54	8.00	-6.22	-0.44	-63.57	1.43	-0.25	-4.26	4.01	-6.12	-12.84	3.89	-18.51	2.32	7.19	14.77	-3.35	49.74	-27.93	0.21	2.21	-2.28	-0.72	-8.11	2.58	-1.72	4.57	9.23	-1.14	-59.04	-31.15	-8.14	-8.78	9.98	3.67	20.55	3.18	4.32	2.02	-5.94	-9.07	-2.07	2.80	-3.72	-13.68	-5.86	-0.19	-1.13	-4.71	-11.38	2.15	3.06	4.56	7.74	-0.03	4.15	
17.93	4.37	7.82	-6.03	-0.53	-63.62	1.22	0.22	-4.17	3.94	-6.14	-12.99	4.03	-18.59	2.41	7.04	14.93	-3.06	49.87	-28.38	0.73	2.32	-2.21	-0.81	-8.13	2.59	-1.72	4.57	9.34	-1.22	-59.28	-31.70	-7.53	-8.78	11.63	2.97	20.94	3.21	4.40	1.73	-7.24	-9.27	-2.04	2.91	-3.56	-14.33	-4.89	0.06	-1.47	-6.98	-10.81	2.05	4.83	3.56	7.12	0.44	4.17	
18.65	4.14	7.61	-5.61	-0.69	-63.61	0.79	0.79	-4.02	3.91	-6.30	-13.22	4.20	-18.70	2.52	6.84	15.32	-2.60	50.27	-29.20	1.33	2.48	-2.14	-0.90	-8.07	2.58	-1.71	4.74	9.50	-1.45	-59.52	-32.36	-8.81	-8.91	9.11	4.17	20.31	3.16	4.27	1.21	-9.20	-9.28	-2.04	3.59	-3.53	-15.02	-3.79	0.37	-2.08	-9.77	-10.00	1.93	7.22	2.50	6.39	0.58	4.24	
19.44	3.84	7.35	-5.06	-0.92	-63.57	0.12	1.68	-3.62	3.97	-6.76	-13.72	4.45	-18.84	2.68	6.41	16.57	-1.60	51.48	-31.22	2.30	2.63	-2.21	-1.06	-7.64	2.57	-1.62	5.37	10.00	-2.12	-60.48	-33.44	-10.28	-9.01	8.31	4.57	20.22	3.15	4.25	0.50	-11.82	-9.29	-2.10	5.08	-3.69	-15.50	-2.97	0.61	-2.86	-12.94	-8.77	1.75	10.12	1.11	5.98	-0.07	4.35	
20.31	3.43	7.05	-4.28	-1.15	-63.27	-1.38	2.97	-2.87	5.16	-7.80	-14.53	4.37	-19.08	2.64	5.76	18.53	0.75	53.78	-35.21	3.26	2.95	-2.25	-1.37	-7.05	2.55	-1.49	7.07	8.82	-3.25	-61.05	-33.79	-10.59	-9.15	7.33	5.07	20.10	3.15	4.23	-0.41	-15.27	-9.17	-2.22	7.40	-4.24	-15.97	-2.27	0.83	-3.76	-16.86	-8.08	1.59	13.69	-0.22	5.54	-0.74	4.47	
21.25	2.89	6.70	-3.38	-1.32	-62.66	-2.26	4.03	-2.71	5.29	-7.90	-15.76	6.20	-20.62	3.90	4.59	20.36	2.65	56.49	-38.46	4.61	3.17	-2.31	-1.56	-6.64	2.54	-1.41	8.11	9.11	-4.09	-62.44	-34.89	-12.23	-9.32	6.52	5.52	19.95	3.13	4.20	-1.50	-19.54	-8.72	-2.44	10.79	-5.27	-15.86	-1.99	0.90	-5.02	-21.50	-7.19	1.44	18.22	-1.32	5.53	-1.06	4.50	
22.23	2.20	6.32	-2.48	-1.37	-61.91	-2.44	4.87	-2.82	4.70	-8.33	-16.69	5.91	-19.78	3.64	3.96	21.98	2.90	58.60	-40.20	6.63	3.28	-2.66	-1.69	-6.24	2.53	-1.32	8.27	10.65	-4.98	-64.24	-36.75	-14.94	-9.56	5.86	5.96	19.68	3.12	4.14	-2.60	-24.49	-8.01	-2.73	15.14	-6.66	-15.57	-2.19	0.83	-6.19	-26.41	-7.17	1.31	22.82	-2.43	5.63	-1.84	4.57	
23.27	1.31	5.91	-1.48	-1.26	-61.12	-2.75	5.91	-2.94	4.44	-8.52	-17.99	7.79	-20.83	4.93	2.92	23.09	4.53	60.74	-42.70	7.63	3.53	-3.17	-2.01	-5.49	2.52	-1.16	9.05	10.87	-6.04	-65.89	-38.23	-17.33	-9.89	4.90	6.57	19.44	3.10	4.09	-3.56	-30.15	-6.38	-3.08	20.35	-8.68	-15.08	-2.81	0.63	-7.51	-31.96	-7.03	1.18	28.17	-3.91	6.17	-3.02	4.65	
